<svg width="20" height="20" viewBox="0 0 20 20" fill="none" xmlns="http://www.w3.org/2000/svg">
<path fill-rule="evenodd" clip-rule="evenodd" d="M9.00117 6.98117C9.00008 6.99389 9 7.00016 9 7.00016C9 7.55244 8.55229 8 8 8C7.44772 8 7 7.55228 7 7C7 6.56589 7.15145 5.86505 7.57527 5.24697C8.03564 4.5756 8.82666 4 10 4C11.1259 4 11.9261 4.49153 12.4115 5.1657C12.8602 5.78887 13 6.50664 13 7C13 8.30908 12.5154 9.2005 11.7829 10.1222C11.5525 10.4121 11.3244 10.7529 11.1489 11.0312C11.0625 11.1682 10.9916 11.2857 10.9428 11.3682C10.9184 11.4094 10.8996 11.4417 10.8872 11.4631L10.8736 11.4867L10.8707 11.4919M10.8707 11.4919C10.5987 11.9725 9.98824 12.1423 9.50759 11.8704C9.0269 11.5984 8.85769 10.9883 9.12964 10.5076L9.99928 10.9996C9.12964 10.5076 9.12964 10.5076 9.12964 10.5076L9.13209 10.5033L9.13729 10.4942L9.15563 10.4623C9.17127 10.4352 9.19368 10.3967 9.22199 10.3489C9.27853 10.2535 9.35915 10.1199 9.4571 9.96454C9.65029 9.65811 9.92223 9.24887 10.2171 8.87781C10.7931 8.1531 11 7.69092 11 7C11 6.82669 10.9398 6.54447 10.7885 6.3343C10.6739 6.17513 10.4741 6 10 6C9.57334 6 9.36436 6.1744 9.22473 6.37803C9.14417 6.49551 9.08476 6.63083 9.0463 6.76065C9.02745 6.82427 9.01524 6.88119 9.00802 6.9268C9.00445 6.9494 9.00234 6.96768 9.00117 6.98117" fill="black"/>
<path fill-rule="evenodd" clip-rule="evenodd" d="M9.00117 6.98117C9.00008 6.99389 9 7.00016 9 7.00016C9 7.55244 8.55229 8 8 8C7.44772 8 7 7.55228 7 7C7 6.56589 7.15145 5.86505 7.57527 5.24697C8.03564 4.5756 8.82666 4 10 4C11.1259 4 11.9261 4.49153 12.4115 5.1657C12.8602 5.78887 13 6.50664 13 7C13 8.30908 12.5154 9.2005 11.7829 10.1222C11.5525 10.4121 11.3244 10.7529 11.1489 11.0312C11.0625 11.1682 10.9916 11.2857 10.9428 11.3682C10.9184 11.4094 10.8996 11.4417 10.8872 11.4631L10.8736 11.4867L10.8707 11.4919M10.8707 11.4919C10.5987 11.9725 9.98824 12.1423 9.50759 11.8704C9.0269 11.5984 8.85769 10.9883 9.12964 10.5076L9.99928 10.9996C9.12964 10.5076 9.12964 10.5076 9.12964 10.5076L9.13209 10.5033L9.13729 10.4942L9.15563 10.4623C9.17127 10.4352 9.19368 10.3967 9.22199 10.3489C9.27853 10.2535 9.35915 10.1199 9.4571 9.96454C9.65029 9.65811 9.92223 9.24887 10.2171 8.87781C10.7931 8.1531 11 7.69092 11 7C11 6.82669 10.9398 6.54447 10.7885 6.3343C10.6739 6.17513 10.4741 6 10 6C9.57334 6 9.36436 6.1744 9.22473 6.37803C9.14417 6.49551 9.08476 6.63083 9.0463 6.76065C9.02745 6.82427 9.01524 6.88119 9.00802 6.9268C9.00445 6.9494 9.00234 6.96768 9.00117 6.98117" fill="#3914AF" fill-opacity="0.3"/>
<path fill-rule="evenodd" clip-rule="evenodd" d="M9.00117 6.98117C9.00008 6.99389 9 7.00016 9 7.00016C9 7.55244 8.55229 8 8 8C7.44772 8 7 7.55228 7 7C7 6.56589 7.15145 5.86505 7.57527 5.24697C8.03564 4.5756 8.82666 4 10 4C11.1259 4 11.9261 4.49153 12.4115 5.1657C12.8602 5.78887 13 6.50664 13 7C13 8.30908 12.5154 9.2005 11.7829 10.1222C11.5525 10.4121 11.3244 10.7529 11.1489 11.0312C11.0625 11.1682 10.9916 11.2857 10.9428 11.3682C10.9184 11.4094 10.8996 11.4417 10.8872 11.4631L10.8736 11.4867L10.8707 11.4919M10.8707 11.4919C10.5987 11.9725 9.98824 12.1423 9.50759 11.8704C9.0269 11.5984 8.85769 10.9883 9.12964 10.5076L9.99928 10.9996C9.12964 10.5076 9.12964 10.5076 9.12964 10.5076L9.13209 10.5033L9.13729 10.4942L9.15563 10.4623C9.17127 10.4352 9.19368 10.3967 9.22199 10.3489C9.27853 10.2535 9.35915 10.1199 9.4571 9.96454C9.65029 9.65811 9.92223 9.24887 10.2171 8.87781C10.7931 8.1531 11 7.69092 11 7C11 6.82669 10.9398 6.54447 10.7885 6.3343C10.6739 6.17513 10.4741 6 10 6C9.57334 6 9.36436 6.1744 9.22473 6.37803C9.14417 6.49551 9.08476 6.63083 9.0463 6.76065C9.02745 6.82427 9.01524 6.88119 9.00802 6.9268C9.00445 6.9494 9.00234 6.96768 9.00117 6.98117" fill="white" fill-opacity="0.75"/>
<path d="M11 14C11 14.5523 10.5523 15 10 15C9.44771 15 9 14.5523 9 14C9 13.4477 9.44771 13 10 13C10.5523 13 11 13.4477 11 14Z" fill="black"/>
<path d="M11 14C11 14.5523 10.5523 15 10 15C9.44771 15 9 14.5523 9 14C9 13.4477 9.44771 13 10 13C10.5523 13 11 13.4477 11 14Z" fill="#3914AF" fill-opacity="0.3"/>
<path d="M11 14C11 14.5523 10.5523 15 10 15C9.44771 15 9 14.5523 9 14C9 13.4477 9.44771 13 10 13C10.5523 13 11 13.4477 11 14Z" fill="white" fill-opacity="0.75"/>
<path fill-rule="evenodd" clip-rule="evenodd" d="M10 2C5.58172 2 2 5.58172 2 10C2 14.4183 5.58172 18 10 18C14.4183 18 18 14.4183 18 10C18 5.58172 14.4183 2 10 2ZM0 10C0 4.47715 4.47715 0 10 0C15.5228 0 20 4.47715 20 10C20 15.5228 15.5228 20 10 20C4.47715 20 0 15.5228 0 10Z" fill="black"/>
<path fill-rule="evenodd" clip-rule="evenodd" d="M10 2C5.58172 2 2 5.58172 2 10C2 14.4183 5.58172 18 10 18C14.4183 18 18 14.4183 18 10C18 5.58172 14.4183 2 10 2ZM0 10C0 4.47715 4.47715 0 10 0C15.5228 0 20 4.47715 20 10C20 15.5228 15.5228 20 10 20C4.47715 20 0 15.5228 0 10Z" fill="#3914AF" fill-opacity="0.3"/>
<path fill-rule="evenodd" clip-rule="evenodd" d="M10 2C5.58172 2 2 5.58172 2 10C2 14.4183 5.58172 18 10 18C14.4183 18 18 14.4183 18 10C18 5.58172 14.4183 2 10 2ZM0 10C0 4.47715 4.47715 0 10 0C15.5228 0 20 4.47715 20 10C20 15.5228 15.5228 20 10 20C4.47715 20 0 15.5228 0 10Z" fill="white" fill-opacity="0.75"/>
</svg>
