<svg width="24" height="18" viewBox="0 0 24 18" fill="none" xmlns="http://www.w3.org/2000/svg">
<path d="M23.8019 8.45218C23.5837 8.12501 18.8943 0.599998 12.0236 0.599998C5.15297 0.599998 0.463496 8.12501 0.24538 8.45218C-0.0817934 8.99747 -0.0817934 9.6518 0.24538 10.1426C0.463496 10.4697 5.15299 17.9947 11.9691 17.9947H12.0236C18.8397 17.9947 23.5292 10.4697 23.7473 10.1426C24.0745 9.6518 24.0745 8.99747 23.8019 8.45218ZM12.0236 16.4134C6.02544 16.4134 1.66312 9.32463 1.66312 9.32463C1.66312 9.32463 6.02544 2.23587 12.0236 2.23587C18.0218 2.23587 22.3841 9.32463 22.3841 9.32463C22.3841 9.32463 18.0218 16.4134 12.0236 16.4134Z" fill="white"/>
<path d="M23.8019 8.45218C23.5837 8.12501 18.8943 0.599998 12.0236 0.599998C5.15297 0.599998 0.463496 8.12501 0.24538 8.45218C-0.0817934 8.99747 -0.0817934 9.6518 0.24538 10.1426C0.463496 10.4697 5.15299 17.9947 11.9691 17.9947H12.0236C18.8397 17.9947 23.5292 10.4697 23.7473 10.1426C24.0745 9.6518 24.0745 8.99747 23.8019 8.45218ZM12.0236 16.4134C6.02544 16.4134 1.66312 9.32463 1.66312 9.32463C1.66312 9.32463 6.02544 2.23587 12.0236 2.23587C18.0218 2.23587 22.3841 9.32463 22.3841 9.32463C22.3841 9.32463 18.0218 16.4134 12.0236 16.4134Z" fill="#3914AF" fill-opacity="0.6"/>
</svg>
