<svg width="10" height="10" viewBox="0 0 10 10" fill="none" xmlns="http://www.w3.org/2000/svg">
<path d="M5.02345 0.962311C2.62417 0.962311 0.661133 2.92535 0.661133 5.32463C0.661133 7.7239 2.62417 9.68694 5.02345 9.68694C7.42272 9.68694 9.38576 7.7239 9.38576 5.32463C9.38576 2.92535 7.42272 0.962311 5.02345 0.962311ZM5.02345 8.05107C3.49664 8.05107 2.297 6.85144 2.297 5.32463C2.297 3.79782 3.49664 2.59818 5.02345 2.59818C6.55026 2.59818 7.7499 3.79782 7.7499 5.32463C7.7499 6.85144 6.55026 8.05107 5.02345 8.05107Z" fill="white"/>
<path d="M5.02345 0.962311C2.62417 0.962311 0.661133 2.92535 0.661133 5.32463C0.661133 7.7239 2.62417 9.68694 5.02345 9.68694C7.42272 9.68694 9.38576 7.7239 9.38576 5.32463C9.38576 2.92535 7.42272 0.962311 5.02345 0.962311ZM5.02345 8.05107C3.49664 8.05107 2.297 6.85144 2.297 5.32463C2.297 3.79782 3.49664 2.59818 5.02345 2.59818C6.55026 2.59818 7.7499 3.79782 7.7499 5.32463C7.7499 6.85144 6.55026 8.05107 5.02345 8.05107Z" fill="#3914AF" fill-opacity="0.6"/>
</svg>
