<svg width="592" height="619" viewBox="0 0 592 619" fill="none" xmlns="http://www.w3.org/2000/svg">
<g filter="url(#filter0_d)">
<path d="M22.9042 729.037C48.1707 639.273 267.492 1135.63 294.352 1046.28C307.458 1002.76 321.615 959.41 339.238 917.48C351.105 889.275 364.922 858.102 387.295 836.496C393.933 830.082 402.102 825.754 408.168 825.584C422.665 825.152 442.393 843.899 455.946 853.342C473.446 865.551 496.732 873.093 515.778 859.338C525.99 851.966 533.076 841.009 539.405 830.329C558.498 798.09 572.33 762.697 588.127 728.82C603.863 695.081 620.14 658.777 645.282 630.85C653.498 621.716 663.091 613.509 675.314 611.5C685.712 609.784 700.055 616.353 709.771 621.7C743.749 640.432 573.32 84.4657 598.03 113.691C649.831 174.986 691.793 243.329 736.26 309.879C737.699 312.027 739.138 314.16 740.624 316.292C748.886 328.316 768.845 317.189 760.49 305.041C716.641 241.273 676.645 175.28 628.247 114.665C602.347 82.2093 574.249 50.5263 540.627 25.8754C517.248 8.73564 486.953 -5.73036 458.36 6.61828C428.87 19.3378 409.699 54.6373 395.093 81.2511C375.474 117.03 359.754 154.802 342.456 191.709C335.432 206.7 328.16 221.692 319.464 235.818C312.935 246.451 306.808 256.373 294.352 256.976C283.661 257.501 273.202 249.032 265.048 243.174C254.341 235.478 244.191 227.086 232.293 221.228C221.214 215.772 209.115 213.902 197.247 217.982C171.842 226.715 155.317 253.112 142.862 275.259C123.011 310.543 108.807 349.165 95.671 387.34C64.2311 478.618 41.1307 572.6 16.4367 665.81C11.4082 684.82 6.31778 703.799 0.979794 722.716C-3.02756 736.872 18.9278 743.178 22.9042 729.037Z" fill="#F2D131"/>
</g>
<defs>
<filter id="filter0_d" x="0.493408" y="0" width="772" height="1057.1" filterUnits="userSpaceOnUse" color-interpolation-filters="sRGB">
<feFlood flood-opacity="0" result="BackgroundImageFix"/>
<feColorMatrix in="SourceAlpha" type="matrix" values="0 0 0 0 0 0 0 0 0 0 0 0 0 0 0 0 0 0 127 0"/>
<feOffset dx="10" dy="-2"/>
<feColorMatrix type="matrix" values="0 0 0 0 0 0 0 0 0 0 0 0 0 0 0 0 0 0 0.25 0"/>
<feBlend mode="normal" in2="BackgroundImageFix" result="effect1_dropShadow"/>
<feBlend mode="normal" in="SourceGraphic" in2="effect1_dropShadow" result="shape"/>
</filter>
</defs>
</svg>
