<svg width="748" height="1009" viewBox="0 0 748 1009" fill="none" xmlns="http://www.w3.org/2000/svg">
<g filter="url(#filter0_d)">
<path d="M22.4934 1022C78.9935 994.5 181.106 1171.68 207.993 1070.5C231.878 980.563 302.028 1134.58 340.493 1049.5C350.632 1027.07 379.295 1072.51 397.993 1058.5C401.476 1055.9 590.284 1677.05 518.993 1049.5C524.225 1047.78 423.545 1108.89 431.733 1110.5C450.401 1114.18 476.568 1027.75 489.493 1040C511.242 1060.61 573.058 1154.65 595.007 1131.5C614.697 1110.75 680.338 1113.15 691.993 1087.5C722.472 1020.38 787.426 1005.35 829.993 944.5C836.789 934.775 729.869 971.784 812.551 737C820.879 731.218 804.889 701.438 812.551 703C842.565 709.076 839.272 645.839 860.493 666C912.318 715.274 769.875 184.914 812.551 242.089C860.939 306.902 906.092 374.219 947.901 443.438C955.501 455.992 975.423 444.814 967.776 432.167C906.463 330.634 838.308 232.333 761.996 141.423C731.812 105.491 700.033 70.1472 663.905 40.0755C643.473 23.0839 616.167 0.912764 587.794 2.04142C561.387 3.09277 541.991 26.2379 527.905 46.028C507.21 75.1257 492.241 108.382 477.784 140.881C462.057 176.225 447.661 212.157 431.733 247.423C420.728 271.774 408.762 300.733 390.42 319.425C386.89 323.012 386.921 323.167 382.339 325.393C385.59 323.801 377.587 326.151 381.829 325.671C376.519 326.259 370.777 325.239 365.622 324.064C347.867 320.028 338.363 304.397 325.686 292.94C302.56 271.991 268.103 267.244 243.554 287.204C222.115 304.629 208.849 332.814 197.658 357.336C180.105 395.741 166.56 435.909 153.929 476.138C106.517 627.146 46.7183 864.298 0.559506 1015.66C-3.75917 1029.78 18.2057 1036.05 22.4934 1022Z" fill="#351BA9"/>
</g>
<defs>
<filter id="filter0_d" x="0" y="0" width="979.493" height="1330.18" filterUnits="userSpaceOnUse" color-interpolation-filters="sRGB">
<feFlood flood-opacity="0" result="BackgroundImageFix"/>
<feColorMatrix in="SourceAlpha" type="matrix" values="0 0 0 0 0 0 0 0 0 0 0 0 0 0 0 0 0 0 127 0"/>
<feOffset dx="10" dy="-2"/>
<feColorMatrix type="matrix" values="0 0 0 0 0 0 0 0 0 0 0 0 0 0 0 0 0 0 0.25 0"/>
<feBlend mode="normal" in2="BackgroundImageFix" result="effect1_dropShadow"/>
<feBlend mode="normal" in="SourceGraphic" in2="effect1_dropShadow" result="shape"/>
</filter>
</defs>
</svg>
