<svg width="664" height="810" viewBox="0 0 664 810" fill="none" xmlns="http://www.w3.org/2000/svg">
<g filter="url(#filter0_d)">
<path d="M23.047 832.125C53.8917 733.631 263.515 1472.2 292.129 1373.07C305.653 1326.24 319.86 1279.51 336.777 1233.78C348.954 1200.89 362.292 1167.08 382.85 1138.38C389.001 1129.76 395.833 1122.46 404.4 1118.17C406.166 1117.28 409.683 1116.5 412.115 1116.53C424.013 1116.63 434.764 1120.11 444.602 1126.67C460.961 1137.57 472.007 1149.2 492.581 1151.88C507.5 1153.81 520.931 1150.55 532.24 1140.98C553.852 1122.67 567.237 1092.7 580.049 1068.15C598.454 1032.85 615.541 996.861 635.015 962.112C651.963 931.879 670.662 900.254 697.634 877.784C717.773 860.989 735.961 860.587 756.457 873.5C786.063 892.166 809.703 921.471 831.532 948.287C860.657 984.041 702.157 183.045 728.014 221.165C763.041 272.817 795.528 326.262 831.532 377.249C839.944 389.157 859.944 378.022 851.424 365.975C804.514 299.555 762.747 229.639 715.62 163.312C690.244 127.604 663.846 92.3138 634.147 60.0547C614.039 38.2187 590.289 13.8774 561.273 4.47494C534.239 -4.29349 507.593 11.6814 488.677 29.7441C462.216 54.9978 443.207 88.2003 425.748 119.934C406.708 154.559 389.884 190.313 371.417 225.232C363.95 239.336 356.189 253.362 347.296 266.631C341.858 274.734 334.05 284.492 327.683 288.312C324.523 290.23 327.141 288.931 324.647 289.611C320.185 290.833 315.119 290.555 310.533 290.4C301.61 290.091 293.709 285.745 286.877 280.332C269.34 266.445 253.879 256.919 230.92 255.001C205.466 252.867 187.325 274.069 174.482 293.168C154.001 323.649 140.57 359.233 127.99 393.502C111.073 439.618 96.9907 486.754 83.4041 533.921C55.4874 631.054 31.2733 729.285 1.07925 825.769C-3.35148 839.857 18.6628 846.136 23.047 832.125Z" fill="#73CA30"/>
</g>
<defs>
<filter id="filter0_d" x="0.493408" y="0" width="863" height="1382.25" filterUnits="userSpaceOnUse" color-interpolation-filters="sRGB">
<feFlood flood-opacity="0" result="BackgroundImageFix"/>
<feColorMatrix in="SourceAlpha" type="matrix" values="0 0 0 0 0 0 0 0 0 0 0 0 0 0 0 0 0 0 127 0"/>
<feOffset dx="10" dy="-2"/>
<feColorMatrix type="matrix" values="0 0 0 0 0 0 0 0 0 0 0 0 0 0 0 0 0 0 0.25 0"/>
<feBlend mode="normal" in2="BackgroundImageFix" result="effect1_dropShadow"/>
<feBlend mode="normal" in="SourceGraphic" in2="effect1_dropShadow" result="shape"/>
</filter>
</defs>
</svg>
