<svg width="517" height="427" viewBox="0 0 517 427" fill="none" xmlns="http://www.w3.org/2000/svg">
<g filter="url(#filter0_d)">
<path d="M22.9469 642.034C49.6014 550.575 236.956 832.052 263.378 740.5C274.479 702.038 286.013 662.74 303.808 626.742C309.189 615.88 315.126 605.001 323.707 597.021C325.995 594.898 327.726 593.922 330.37 593.317C333.153 592.682 327.881 593.41 330.71 593.364C333.091 593.333 335.519 593.55 337.853 593.968C342.955 594.882 347.408 596.912 351.752 599.64C379.721 617.212 381.561 665.529 420.6 667.343C441.92 668.334 456.762 635.079 464.895 620.064C482.721 587.103 497.842 552.717 514.354 519.09C530.294 486.61 546.652 452.643 569.379 424.254C575.533 416.568 582.629 408.789 590.7 403.69C597.951 399.119 601.847 398.623 609.113 400.947C619.58 404.295 629.398 412.539 637.762 419.729C650.811 430.948 662.654 443.531 674.173 456.284C727.513 515.433 604.599 207.009 651.492 271.225C660.072 282.971 680.048 271.845 671.343 259.928C616.597 184.942 564.942 104.579 498.074 39.6346C479.552 21.659 451.8 -4.90149 423.352 3.6524C396.125 11.8344 377.557 42.0055 363.549 64.6609C342.847 98.1017 326.165 134.006 309.235 169.462C295.073 199.121 281.792 230.114 263.378 257.434C260.472 261.741 259.142 263.585 255.462 267.243C252.834 269.877 255.076 268.002 253.02 269.319C251.133 270.528 253.313 269.629 253.159 269.629C239.862 269.985 231.436 249.608 225.901 240.357C216.486 224.551 205.338 208.822 188.069 201.074C175.128 195.263 159.126 192.752 146.587 200.764C125.437 214.277 114.583 242.852 105.415 264.918C90.1088 301.784 78.9461 340.416 68.2008 378.815C44.3447 464.06 25.7763 550.714 1.00801 635.695C-3.12003 649.875 18.8189 656.182 22.9469 642.034Z" fill="#C81818"/>
</g>
<defs>
<filter id="filter0_d" x="0.493408" y="0" width="697.377" height="759.073" filterUnits="userSpaceOnUse" color-interpolation-filters="sRGB">
<feFlood flood-opacity="0" result="BackgroundImageFix"/>
<feColorMatrix in="SourceAlpha" type="matrix" values="0 0 0 0 0 0 0 0 0 0 0 0 0 0 0 0 0 0 127 0"/>
<feOffset dx="10" dy="-2"/>
<feColorMatrix type="matrix" values="0 0 0 0 0 0 0 0 0 0 0 0 0 0 0 0 0 0 0.25 0"/>
<feBlend mode="normal" in2="BackgroundImageFix" result="effect1_dropShadow"/>
<feBlend mode="normal" in="SourceGraphic" in2="effect1_dropShadow" result="shape"/>
</filter>
</defs>
</svg>
